<mxfile host="Electron" agent="Mozilla/5.0 (Windows NT 10.0; Win64; x64) AppleWebKit/537.36 (KHTML, like Gecko) draw.io/24.7.17 Chrome/128.0.6613.36 Electron/32.0.1 Safari/537.36" version="24.7.17">
  <diagram name="PÃ¡gina-1" id="cMCscixI19nPfR6um9P4">
    <mxGraphModel dx="1035" dy="626" grid="1" gridSize="10" guides="1" tooltips="1" connect="1" arrows="1" fold="1" page="1" pageScale="1" pageWidth="827" pageHeight="1169" math="0" shadow="0">
      <root>
        <mxCell id="0" />
        <mxCell id="1" parent="0" />
        <mxCell id="wLJ4JzAqykcAb_q9Na1e-1" value="" style="endArrow=none;html=1;rounded=0;" parent="1" edge="1">
          <mxGeometry width="50" height="50" relative="1" as="geometry">
            <mxPoint x="40" y="320" as="sourcePoint" />
            <mxPoint x="40" y="240" as="targetPoint" />
          </mxGeometry>
        </mxCell>
        <mxCell id="wLJ4JzAqykcAb_q9Na1e-2" value="" style="endArrow=classic;html=1;rounded=0;" parent="1" edge="1">
          <mxGeometry width="50" height="50" relative="1" as="geometry">
            <mxPoint x="40" y="280" as="sourcePoint" />
            <mxPoint x="100" y="280" as="targetPoint" />
          </mxGeometry>
        </mxCell>
        <mxCell id="wLJ4JzAqykcAb_q9Na1e-3" value="" style="ellipse;whiteSpace=wrap;html=1;aspect=fixed;" parent="1" vertex="1">
          <mxGeometry x="100" y="260" width="40" height="40" as="geometry" />
        </mxCell>
        <mxCell id="wLJ4JzAqykcAb_q9Na1e-4" value="" style="endArrow=none;html=1;rounded=0;" parent="1" edge="1">
          <mxGeometry width="50" height="50" relative="1" as="geometry">
            <mxPoint x="180" y="320" as="sourcePoint" />
            <mxPoint x="180" y="240" as="targetPoint" />
          </mxGeometry>
        </mxCell>
        <mxCell id="wLJ4JzAqykcAb_q9Na1e-6" value="" style="endArrow=classic;html=1;rounded=0;entryX=0;entryY=0.5;entryDx=0;entryDy=0;" parent="1" edge="1">
          <mxGeometry width="50" height="50" relative="1" as="geometry">
            <mxPoint x="140" y="279.58" as="sourcePoint" />
            <mxPoint x="180" y="279.58" as="targetPoint" />
          </mxGeometry>
        </mxCell>
        <mxCell id="wLJ4JzAqykcAb_q9Na1e-7" value="&lt;h5 style=&quot;font-size: 7px;&quot;&gt;&lt;span style=&quot;font-weight: normal;&quot;&gt;Llega un vino&lt;br&gt;Blanco&lt;/span&gt;&lt;/h5&gt;" style="text;html=1;align=left;verticalAlign=middle;resizable=0;points=[];autosize=1;strokeColor=none;fillColor=none;" parent="1" vertex="1">
          <mxGeometry x="30" y="200" width="70" height="50" as="geometry" />
        </mxCell>
        <mxCell id="wLJ4JzAqykcAb_q9Na1e-8" value="Vino B Esperando&lt;div&gt;en Contenedor&lt;/div&gt;" style="text;html=1;align=center;verticalAlign=middle;resizable=0;points=[];autosize=1;strokeColor=none;fillColor=none;" parent="1" vertex="1">
          <mxGeometry x="50" y="220" width="120" height="40" as="geometry" />
        </mxCell>
        <mxCell id="wLJ4JzAqykcAb_q9Na1e-9" value="" style="endArrow=classic;html=1;rounded=0;entryX=0;entryY=0.5;entryDx=0;entryDy=0;" parent="1" edge="1">
          <mxGeometry width="50" height="50" relative="1" as="geometry">
            <mxPoint x="140" y="289.58" as="sourcePoint" />
            <mxPoint x="180" y="289.58" as="targetPoint" />
          </mxGeometry>
        </mxCell>
        <mxCell id="wLJ4JzAqykcAb_q9Na1e-10" value="" style="endArrow=classic;html=1;rounded=0;entryX=0;entryY=0.5;entryDx=0;entryDy=0;" parent="1" edge="1">
          <mxGeometry width="50" height="50" relative="1" as="geometry">
            <mxPoint x="140" y="270" as="sourcePoint" />
            <mxPoint x="180" y="270" as="targetPoint" />
          </mxGeometry>
        </mxCell>
        <mxCell id="wLJ4JzAqykcAb_q9Na1e-11" value="" style="ellipse;whiteSpace=wrap;html=1;aspect=fixed;" parent="1" vertex="1">
          <mxGeometry x="230" y="260" width="40" height="40" as="geometry" />
        </mxCell>
        <mxCell id="wLJ4JzAqykcAb_q9Na1e-12" value="" style="endArrow=none;html=1;rounded=0;" parent="1" edge="1">
          <mxGeometry width="50" height="50" relative="1" as="geometry">
            <mxPoint x="320" y="320" as="sourcePoint" />
            <mxPoint x="320" y="240" as="targetPoint" />
          </mxGeometry>
        </mxCell>
        <mxCell id="wLJ4JzAqykcAb_q9Na1e-13" value="" style="endArrow=classic;html=1;rounded=0;" parent="1" target="wLJ4JzAqykcAb_q9Na1e-27" edge="1">
          <mxGeometry width="50" height="50" relative="1" as="geometry">
            <mxPoint x="320" y="280" as="sourcePoint" />
            <mxPoint x="380" y="280" as="targetPoint" />
          </mxGeometry>
        </mxCell>
        <mxCell id="wLJ4JzAqykcAb_q9Na1e-15" value="" style="endArrow=classic;html=1;rounded=0;entryX=0;entryY=0.5;entryDx=0;entryDy=0;" parent="1" edge="1">
          <mxGeometry width="50" height="50" relative="1" as="geometry">
            <mxPoint x="186" y="265.58" as="sourcePoint" />
            <mxPoint x="226" y="265.58" as="targetPoint" />
          </mxGeometry>
        </mxCell>
        <mxCell id="wLJ4JzAqykcAb_q9Na1e-16" value="" style="endArrow=classic;html=1;rounded=0;entryX=0;entryY=0.5;entryDx=0;entryDy=0;" parent="1" edge="1">
          <mxGeometry width="50" height="50" relative="1" as="geometry">
            <mxPoint x="186" y="275.58" as="sourcePoint" />
            <mxPoint x="226" y="275.58" as="targetPoint" />
          </mxGeometry>
        </mxCell>
        <mxCell id="wLJ4JzAqykcAb_q9Na1e-17" value="" style="endArrow=classic;html=1;rounded=0;entryX=0;entryY=0.5;entryDx=0;entryDy=0;" parent="1" edge="1">
          <mxGeometry width="50" height="50" relative="1" as="geometry">
            <mxPoint x="186" y="256" as="sourcePoint" />
            <mxPoint x="226" y="256" as="targetPoint" />
          </mxGeometry>
        </mxCell>
        <mxCell id="wLJ4JzAqykcAb_q9Na1e-20" style="edgeStyle=orthogonalEdgeStyle;rounded=0;orthogonalLoop=1;jettySize=auto;html=1;endArrow=none;endFill=0;startArrow=classic;startFill=1;" parent="1" source="wLJ4JzAqykcAb_q9Na1e-18" edge="1">
          <mxGeometry relative="1" as="geometry">
            <mxPoint x="340" y="250" as="targetPoint" />
          </mxGeometry>
        </mxCell>
        <mxCell id="wLJ4JzAqykcAb_q9Na1e-18" value="O" style="ellipse;whiteSpace=wrap;html=1;aspect=fixed;" parent="1" vertex="1">
          <mxGeometry x="230" y="160" width="40" height="40" as="geometry" />
        </mxCell>
        <mxCell id="wLJ4JzAqykcAb_q9Na1e-19" value="Operario 1 Libre" style="text;html=1;align=center;verticalAlign=middle;resizable=0;points=[];autosize=1;strokeColor=none;fillColor=none;" parent="1" vertex="1">
          <mxGeometry x="195" y="130" width="110" height="30" as="geometry" />
        </mxCell>
        <mxCell id="wLJ4JzAqykcAb_q9Na1e-21" style="edgeStyle=orthogonalEdgeStyle;rounded=0;orthogonalLoop=1;jettySize=auto;html=1;entryX=1.033;entryY=0.756;entryDx=0;entryDy=0;entryPerimeter=0;" parent="1" source="wLJ4JzAqykcAb_q9Na1e-18" target="wLJ4JzAqykcAb_q9Na1e-8" edge="1">
          <mxGeometry relative="1" as="geometry" />
        </mxCell>
        <mxCell id="wLJ4JzAqykcAb_q9Na1e-23" value="Armando&lt;div&gt;Caja 1&lt;/div&gt;" style="text;html=1;align=center;verticalAlign=middle;resizable=0;points=[];autosize=1;strokeColor=none;fillColor=none;" parent="1" vertex="1">
          <mxGeometry x="215" y="223" width="70" height="40" as="geometry" />
        </mxCell>
        <mxCell id="wLJ4JzAqykcAb_q9Na1e-24" value="&lt;h5 style=&quot;font-size: 7px;&quot;&gt;&lt;span style=&quot;font-weight: normal;&quot;&gt;Comienza&lt;br&gt;el Armado de Caja 1&lt;/span&gt;&lt;/h5&gt;" style="text;html=1;align=left;verticalAlign=middle;resizable=0;points=[];autosize=1;strokeColor=none;fillColor=none;" parent="1" vertex="1">
          <mxGeometry x="180" y="190" width="90" height="50" as="geometry" />
        </mxCell>
        <mxCell id="wLJ4JzAqykcAb_q9Na1e-25" value="&lt;h5 style=&quot;font-size: 7px;&quot;&gt;&lt;span style=&quot;font-weight: normal;&quot;&gt;Finaliza&lt;br&gt;el Armado de Caja 1&lt;/span&gt;&lt;/h5&gt;" style="text;html=1;align=left;verticalAlign=middle;resizable=0;points=[];autosize=1;strokeColor=none;fillColor=none;" parent="1" vertex="1">
          <mxGeometry x="270" y="190" width="90" height="50" as="geometry" />
        </mxCell>
        <mxCell id="wLJ4JzAqykcAb_q9Na1e-27" value="" style="ellipse;whiteSpace=wrap;html=1;aspect=fixed;" parent="1" vertex="1">
          <mxGeometry x="410" y="360" width="40" height="40" as="geometry" />
        </mxCell>
        <mxCell id="wLJ4JzAqykcAb_q9Na1e-28" value="" style="endArrow=none;html=1;rounded=0;" parent="1" edge="1">
          <mxGeometry width="50" height="50" relative="1" as="geometry">
            <mxPoint x="490" y="420" as="sourcePoint" />
            <mxPoint x="490" y="340" as="targetPoint" />
          </mxGeometry>
        </mxCell>
        <mxCell id="wLJ4JzAqykcAb_q9Na1e-30" value="" style="endArrow=classic;html=1;rounded=0;entryX=0;entryY=0.5;entryDx=0;entryDy=0;" parent="1" edge="1">
          <mxGeometry width="50" height="50" relative="1" as="geometry">
            <mxPoint x="450" y="379.58" as="sourcePoint" />
            <mxPoint x="490" y="379.58" as="targetPoint" />
          </mxGeometry>
        </mxCell>
        <mxCell id="wLJ4JzAqykcAb_q9Na1e-31" value="Esperando en&lt;div&gt;el desposito&lt;/div&gt;" style="text;html=1;align=center;verticalAlign=middle;resizable=0;points=[];autosize=1;strokeColor=none;fillColor=none;" parent="1" vertex="1">
          <mxGeometry x="380" y="305" width="100" height="40" as="geometry" />
        </mxCell>
        <mxCell id="wLJ4JzAqykcAb_q9Na1e-32" value="&lt;h5 style=&quot;font-size: 7px;&quot;&gt;&lt;span style=&quot;font-weight: 400;&quot;&gt;Se despacha la caja&lt;/span&gt;&lt;/h5&gt;" style="text;html=1;align=left;verticalAlign=middle;resizable=0;points=[];autosize=1;strokeColor=none;fillColor=none;" parent="1" vertex="1">
          <mxGeometry x="470" y="300" width="90" height="50" as="geometry" />
        </mxCell>
        <mxCell id="wLJ4JzAqykcAb_q9Na1e-33" value="" style="endArrow=none;html=1;rounded=0;" parent="1" edge="1">
          <mxGeometry width="50" height="50" relative="1" as="geometry">
            <mxPoint x="40" y="520" as="sourcePoint" />
            <mxPoint x="40" y="440" as="targetPoint" />
          </mxGeometry>
        </mxCell>
        <mxCell id="wLJ4JzAqykcAb_q9Na1e-34" value="" style="endArrow=classic;html=1;rounded=0;" parent="1" edge="1">
          <mxGeometry width="50" height="50" relative="1" as="geometry">
            <mxPoint x="40" y="480" as="sourcePoint" />
            <mxPoint x="100" y="480" as="targetPoint" />
          </mxGeometry>
        </mxCell>
        <mxCell id="wLJ4JzAqykcAb_q9Na1e-35" value="" style="ellipse;whiteSpace=wrap;html=1;aspect=fixed;" parent="1" vertex="1">
          <mxGeometry x="100" y="460" width="40" height="40" as="geometry" />
        </mxCell>
        <mxCell id="wLJ4JzAqykcAb_q9Na1e-36" value="" style="endArrow=none;html=1;rounded=0;" parent="1" edge="1">
          <mxGeometry width="50" height="50" relative="1" as="geometry">
            <mxPoint x="180" y="520" as="sourcePoint" />
            <mxPoint x="180" y="440" as="targetPoint" />
          </mxGeometry>
        </mxCell>
        <mxCell id="wLJ4JzAqykcAb_q9Na1e-37" value="" style="endArrow=classic;html=1;rounded=0;entryX=0;entryY=0.5;entryDx=0;entryDy=0;" parent="1" edge="1">
          <mxGeometry width="50" height="50" relative="1" as="geometry">
            <mxPoint x="140" y="479.58" as="sourcePoint" />
            <mxPoint x="180" y="479.58" as="targetPoint" />
          </mxGeometry>
        </mxCell>
        <mxCell id="wLJ4JzAqykcAb_q9Na1e-38" value="&lt;h5 style=&quot;font-size: 7px;&quot;&gt;&lt;span style=&quot;font-weight: normal;&quot;&gt;Llega un vino&lt;br&gt;Tinto&lt;/span&gt;&lt;/h5&gt;" style="text;html=1;align=left;verticalAlign=middle;resizable=0;points=[];autosize=1;strokeColor=none;fillColor=none;" parent="1" vertex="1">
          <mxGeometry x="30" y="400" width="70" height="50" as="geometry" />
        </mxCell>
        <mxCell id="wLJ4JzAqykcAb_q9Na1e-39" value="Vino T Esperando&lt;div&gt;en Contenedor&lt;/div&gt;" style="text;html=1;align=center;verticalAlign=middle;resizable=0;points=[];autosize=1;strokeColor=none;fillColor=none;" parent="1" vertex="1">
          <mxGeometry x="50" y="500" width="120" height="40" as="geometry" />
        </mxCell>
        <mxCell id="wLJ4JzAqykcAb_q9Na1e-40" value="" style="endArrow=classic;html=1;rounded=0;entryX=0;entryY=0.5;entryDx=0;entryDy=0;" parent="1" edge="1">
          <mxGeometry width="50" height="50" relative="1" as="geometry">
            <mxPoint x="140" y="489.58" as="sourcePoint" />
            <mxPoint x="180" y="489.58" as="targetPoint" />
          </mxGeometry>
        </mxCell>
        <mxCell id="wLJ4JzAqykcAb_q9Na1e-41" value="" style="endArrow=classic;html=1;rounded=0;" parent="1" edge="1">
          <mxGeometry width="50" height="50" relative="1" as="geometry">
            <mxPoint x="140" y="470" as="sourcePoint" />
            <mxPoint x="180" y="470" as="targetPoint" />
          </mxGeometry>
        </mxCell>
        <mxCell id="wLJ4JzAqykcAb_q9Na1e-42" value="" style="ellipse;whiteSpace=wrap;html=1;aspect=fixed;" parent="1" vertex="1">
          <mxGeometry x="230" y="460" width="40" height="40" as="geometry" />
        </mxCell>
        <mxCell id="wLJ4JzAqykcAb_q9Na1e-43" value="" style="endArrow=none;html=1;rounded=0;" parent="1" edge="1">
          <mxGeometry width="50" height="50" relative="1" as="geometry">
            <mxPoint x="320" y="520" as="sourcePoint" />
            <mxPoint x="320" y="440" as="targetPoint" />
          </mxGeometry>
        </mxCell>
        <mxCell id="wLJ4JzAqykcAb_q9Na1e-48" style="edgeStyle=orthogonalEdgeStyle;rounded=0;orthogonalLoop=1;jettySize=auto;html=1;endArrow=none;endFill=0;startArrow=classic;startFill=1;" parent="1" source="wLJ4JzAqykcAb_q9Na1e-49" edge="1">
          <mxGeometry relative="1" as="geometry">
            <mxPoint x="340" y="450" as="targetPoint" />
          </mxGeometry>
        </mxCell>
        <mxCell id="wLJ4JzAqykcAb_q9Na1e-49" value="O" style="ellipse;whiteSpace=wrap;html=1;aspect=fixed;" parent="1" vertex="1">
          <mxGeometry x="230" y="360" width="40" height="40" as="geometry" />
        </mxCell>
        <mxCell id="wLJ4JzAqykcAb_q9Na1e-50" value="Operario 2 Libre" style="text;html=1;align=center;verticalAlign=middle;resizable=0;points=[];autosize=1;strokeColor=none;fillColor=none;" parent="1" vertex="1">
          <mxGeometry x="195" y="330" width="110" height="30" as="geometry" />
        </mxCell>
        <mxCell id="wLJ4JzAqykcAb_q9Na1e-51" style="edgeStyle=orthogonalEdgeStyle;rounded=0;orthogonalLoop=1;jettySize=auto;html=1;" parent="1" source="wLJ4JzAqykcAb_q9Na1e-49" edge="1">
          <mxGeometry relative="1" as="geometry">
            <mxPoint x="170" y="460" as="targetPoint" />
          </mxGeometry>
        </mxCell>
        <mxCell id="wLJ4JzAqykcAb_q9Na1e-52" value="Armando&lt;div&gt;Caja 2&lt;/div&gt;" style="text;html=1;align=center;verticalAlign=middle;resizable=0;points=[];autosize=1;strokeColor=none;fillColor=none;" parent="1" vertex="1">
          <mxGeometry x="215" y="500" width="70" height="40" as="geometry" />
        </mxCell>
        <mxCell id="wLJ4JzAqykcAb_q9Na1e-53" value="&lt;h5 style=&quot;font-size: 7px;&quot;&gt;&lt;span style=&quot;font-weight: normal;&quot;&gt;Comienza&lt;br&gt;el Armado de Caja 2&lt;/span&gt;&lt;/h5&gt;" style="text;html=1;align=left;verticalAlign=middle;resizable=0;points=[];autosize=1;strokeColor=none;fillColor=none;" parent="1" vertex="1">
          <mxGeometry x="180" y="400" width="90" height="50" as="geometry" />
        </mxCell>
        <mxCell id="wLJ4JzAqykcAb_q9Na1e-54" value="&lt;h5 style=&quot;font-size: 7px;&quot;&gt;&lt;span style=&quot;font-weight: normal;&quot;&gt;Finaliza&lt;br&gt;el Armado de Caja 2&lt;/span&gt;&lt;/h5&gt;" style="text;html=1;align=left;verticalAlign=middle;resizable=0;points=[];autosize=1;strokeColor=none;fillColor=none;" parent="1" vertex="1">
          <mxGeometry x="270" y="400" width="90" height="50" as="geometry" />
        </mxCell>
        <mxCell id="wLJ4JzAqykcAb_q9Na1e-55" value="" style="endArrow=classic;html=1;rounded=0;" parent="1" edge="1">
          <mxGeometry width="50" height="50" relative="1" as="geometry">
            <mxPoint x="120" y="314.58" as="sourcePoint" />
            <mxPoint x="140" y="380" as="targetPoint" />
          </mxGeometry>
        </mxCell>
        <mxCell id="wLJ4JzAqykcAb_q9Na1e-56" value="" style="endArrow=classic;html=1;rounded=0;" parent="1" edge="1">
          <mxGeometry width="50" height="50" relative="1" as="geometry">
            <mxPoint x="120" y="324.58" as="sourcePoint" />
            <mxPoint x="130" y="380" as="targetPoint" />
          </mxGeometry>
        </mxCell>
        <mxCell id="wLJ4JzAqykcAb_q9Na1e-57" value="" style="endArrow=classic;html=1;rounded=0;" parent="1" edge="1">
          <mxGeometry width="50" height="50" relative="1" as="geometry">
            <mxPoint x="120" y="305" as="sourcePoint" />
            <mxPoint x="150" y="380" as="targetPoint" />
          </mxGeometry>
        </mxCell>
        <mxCell id="wLJ4JzAqykcAb_q9Na1e-58" value="" style="endArrow=classic;html=1;rounded=0;" parent="1" edge="1">
          <mxGeometry width="50" height="50" relative="1" as="geometry">
            <mxPoint x="120" y="415.08" as="sourcePoint" />
            <mxPoint x="160" y="330" as="targetPoint" />
          </mxGeometry>
        </mxCell>
        <mxCell id="wLJ4JzAqykcAb_q9Na1e-59" value="" style="endArrow=classic;html=1;rounded=0;" parent="1" edge="1">
          <mxGeometry width="50" height="50" relative="1" as="geometry">
            <mxPoint x="120" y="425.08" as="sourcePoint" />
            <mxPoint x="160" y="350" as="targetPoint" />
          </mxGeometry>
        </mxCell>
        <mxCell id="wLJ4JzAqykcAb_q9Na1e-60" value="" style="endArrow=classic;html=1;rounded=0;" parent="1" edge="1">
          <mxGeometry width="50" height="50" relative="1" as="geometry">
            <mxPoint x="120" y="405.5" as="sourcePoint" />
            <mxPoint x="150" y="320" as="targetPoint" />
          </mxGeometry>
        </mxCell>
        <mxCell id="wLJ4JzAqykcAb_q9Na1e-61" value="" style="endArrow=classic;html=1;rounded=0;" parent="1" target="wLJ4JzAqykcAb_q9Na1e-27" edge="1">
          <mxGeometry width="50" height="50" relative="1" as="geometry">
            <mxPoint x="320" y="479.65999999999997" as="sourcePoint" />
            <mxPoint x="360" y="479.65999999999997" as="targetPoint" />
          </mxGeometry>
        </mxCell>
        <mxCell id="--feYxdzkC56n0ldyZ8u-1" value="" style="endArrow=classic;html=1;rounded=0;entryX=0;entryY=0.5;entryDx=0;entryDy=0;" edge="1" parent="1">
          <mxGeometry width="50" height="50" relative="1" as="geometry">
            <mxPoint x="186" y="295.57" as="sourcePoint" />
            <mxPoint x="226" y="295.57" as="targetPoint" />
          </mxGeometry>
        </mxCell>
        <mxCell id="--feYxdzkC56n0ldyZ8u-2" value="" style="endArrow=classic;html=1;rounded=0;entryX=0;entryY=0.5;entryDx=0;entryDy=0;" edge="1" parent="1">
          <mxGeometry width="50" height="50" relative="1" as="geometry">
            <mxPoint x="186" y="305.57" as="sourcePoint" />
            <mxPoint x="226" y="305.57" as="targetPoint" />
          </mxGeometry>
        </mxCell>
        <mxCell id="--feYxdzkC56n0ldyZ8u-3" value="" style="endArrow=classic;html=1;rounded=0;entryX=0;entryY=0.5;entryDx=0;entryDy=0;" edge="1" parent="1">
          <mxGeometry width="50" height="50" relative="1" as="geometry">
            <mxPoint x="186" y="285.99" as="sourcePoint" />
            <mxPoint x="226" y="285.99" as="targetPoint" />
          </mxGeometry>
        </mxCell>
        <mxCell id="--feYxdzkC56n0ldyZ8u-4" value="" style="endArrow=classic;html=1;rounded=0;entryX=0;entryY=0.5;entryDx=0;entryDy=0;" edge="1" parent="1">
          <mxGeometry width="50" height="50" relative="1" as="geometry">
            <mxPoint x="275" y="264.58" as="sourcePoint" />
            <mxPoint x="315" y="264.58" as="targetPoint" />
          </mxGeometry>
        </mxCell>
        <mxCell id="--feYxdzkC56n0ldyZ8u-5" value="" style="endArrow=classic;html=1;rounded=0;entryX=0;entryY=0.5;entryDx=0;entryDy=0;" edge="1" parent="1">
          <mxGeometry width="50" height="50" relative="1" as="geometry">
            <mxPoint x="275" y="274.58" as="sourcePoint" />
            <mxPoint x="315" y="274.58" as="targetPoint" />
          </mxGeometry>
        </mxCell>
        <mxCell id="--feYxdzkC56n0ldyZ8u-6" value="" style="endArrow=classic;html=1;rounded=0;entryX=0;entryY=0.5;entryDx=0;entryDy=0;" edge="1" parent="1">
          <mxGeometry width="50" height="50" relative="1" as="geometry">
            <mxPoint x="275" y="255" as="sourcePoint" />
            <mxPoint x="315" y="255" as="targetPoint" />
          </mxGeometry>
        </mxCell>
        <mxCell id="--feYxdzkC56n0ldyZ8u-7" value="" style="endArrow=classic;html=1;rounded=0;entryX=0;entryY=0.5;entryDx=0;entryDy=0;" edge="1" parent="1">
          <mxGeometry width="50" height="50" relative="1" as="geometry">
            <mxPoint x="275" y="294.57" as="sourcePoint" />
            <mxPoint x="315" y="294.57" as="targetPoint" />
          </mxGeometry>
        </mxCell>
        <mxCell id="--feYxdzkC56n0ldyZ8u-8" value="" style="endArrow=classic;html=1;rounded=0;entryX=0;entryY=0.5;entryDx=0;entryDy=0;" edge="1" parent="1">
          <mxGeometry width="50" height="50" relative="1" as="geometry">
            <mxPoint x="275" y="304.57" as="sourcePoint" />
            <mxPoint x="315" y="304.57" as="targetPoint" />
          </mxGeometry>
        </mxCell>
        <mxCell id="--feYxdzkC56n0ldyZ8u-9" value="" style="endArrow=classic;html=1;rounded=0;entryX=0;entryY=0.5;entryDx=0;entryDy=0;" edge="1" parent="1">
          <mxGeometry width="50" height="50" relative="1" as="geometry">
            <mxPoint x="275" y="284.99" as="sourcePoint" />
            <mxPoint x="315" y="284.99" as="targetPoint" />
          </mxGeometry>
        </mxCell>
        <mxCell id="--feYxdzkC56n0ldyZ8u-10" value="" style="endArrow=classic;html=1;rounded=0;entryX=0;entryY=0.5;entryDx=0;entryDy=0;" edge="1" parent="1">
          <mxGeometry width="50" height="50" relative="1" as="geometry">
            <mxPoint x="186" y="466.58" as="sourcePoint" />
            <mxPoint x="226" y="466.58" as="targetPoint" />
          </mxGeometry>
        </mxCell>
        <mxCell id="--feYxdzkC56n0ldyZ8u-11" value="" style="endArrow=classic;html=1;rounded=0;entryX=0;entryY=0.5;entryDx=0;entryDy=0;" edge="1" parent="1">
          <mxGeometry width="50" height="50" relative="1" as="geometry">
            <mxPoint x="186" y="476.58" as="sourcePoint" />
            <mxPoint x="226" y="476.58" as="targetPoint" />
          </mxGeometry>
        </mxCell>
        <mxCell id="--feYxdzkC56n0ldyZ8u-12" value="" style="endArrow=classic;html=1;rounded=0;entryX=0;entryY=0.5;entryDx=0;entryDy=0;" edge="1" parent="1">
          <mxGeometry width="50" height="50" relative="1" as="geometry">
            <mxPoint x="186" y="457" as="sourcePoint" />
            <mxPoint x="226" y="457" as="targetPoint" />
          </mxGeometry>
        </mxCell>
        <mxCell id="--feYxdzkC56n0ldyZ8u-13" value="" style="endArrow=classic;html=1;rounded=0;entryX=0;entryY=0.5;entryDx=0;entryDy=0;" edge="1" parent="1">
          <mxGeometry width="50" height="50" relative="1" as="geometry">
            <mxPoint x="186" y="496.57" as="sourcePoint" />
            <mxPoint x="226" y="496.57" as="targetPoint" />
          </mxGeometry>
        </mxCell>
        <mxCell id="--feYxdzkC56n0ldyZ8u-14" value="" style="endArrow=classic;html=1;rounded=0;entryX=0;entryY=0.5;entryDx=0;entryDy=0;" edge="1" parent="1">
          <mxGeometry width="50" height="50" relative="1" as="geometry">
            <mxPoint x="186" y="506.57" as="sourcePoint" />
            <mxPoint x="226" y="506.57" as="targetPoint" />
          </mxGeometry>
        </mxCell>
        <mxCell id="--feYxdzkC56n0ldyZ8u-15" value="" style="endArrow=classic;html=1;rounded=0;entryX=0;entryY=0.5;entryDx=0;entryDy=0;" edge="1" parent="1">
          <mxGeometry width="50" height="50" relative="1" as="geometry">
            <mxPoint x="186" y="486.99" as="sourcePoint" />
            <mxPoint x="226" y="486.99" as="targetPoint" />
          </mxGeometry>
        </mxCell>
        <mxCell id="--feYxdzkC56n0ldyZ8u-16" value="" style="endArrow=classic;html=1;rounded=0;entryX=0;entryY=0.5;entryDx=0;entryDy=0;" edge="1" parent="1">
          <mxGeometry width="50" height="50" relative="1" as="geometry">
            <mxPoint x="275" y="464.58" as="sourcePoint" />
            <mxPoint x="315" y="464.58" as="targetPoint" />
          </mxGeometry>
        </mxCell>
        <mxCell id="--feYxdzkC56n0ldyZ8u-17" value="" style="endArrow=classic;html=1;rounded=0;entryX=0;entryY=0.5;entryDx=0;entryDy=0;" edge="1" parent="1">
          <mxGeometry width="50" height="50" relative="1" as="geometry">
            <mxPoint x="275" y="474.58" as="sourcePoint" />
            <mxPoint x="315" y="474.58" as="targetPoint" />
          </mxGeometry>
        </mxCell>
        <mxCell id="--feYxdzkC56n0ldyZ8u-18" value="" style="endArrow=classic;html=1;rounded=0;entryX=0;entryY=0.5;entryDx=0;entryDy=0;" edge="1" parent="1">
          <mxGeometry width="50" height="50" relative="1" as="geometry">
            <mxPoint x="275" y="455" as="sourcePoint" />
            <mxPoint x="315" y="455" as="targetPoint" />
          </mxGeometry>
        </mxCell>
        <mxCell id="--feYxdzkC56n0ldyZ8u-19" value="" style="endArrow=classic;html=1;rounded=0;entryX=0;entryY=0.5;entryDx=0;entryDy=0;" edge="1" parent="1">
          <mxGeometry width="50" height="50" relative="1" as="geometry">
            <mxPoint x="275" y="494.57" as="sourcePoint" />
            <mxPoint x="315" y="494.57" as="targetPoint" />
          </mxGeometry>
        </mxCell>
        <mxCell id="--feYxdzkC56n0ldyZ8u-20" value="" style="endArrow=classic;html=1;rounded=0;entryX=0;entryY=0.5;entryDx=0;entryDy=0;" edge="1" parent="1">
          <mxGeometry width="50" height="50" relative="1" as="geometry">
            <mxPoint x="275" y="504.57" as="sourcePoint" />
            <mxPoint x="315" y="504.57" as="targetPoint" />
          </mxGeometry>
        </mxCell>
        <mxCell id="--feYxdzkC56n0ldyZ8u-21" value="" style="endArrow=classic;html=1;rounded=0;entryX=0;entryY=0.5;entryDx=0;entryDy=0;" edge="1" parent="1">
          <mxGeometry width="50" height="50" relative="1" as="geometry">
            <mxPoint x="275" y="484.99" as="sourcePoint" />
            <mxPoint x="315" y="484.99" as="targetPoint" />
          </mxGeometry>
        </mxCell>
      </root>
    </mxGraphModel>
  </diagram>
</mxfile>
